<?xml version="1.0" standalone="no"?>
<!DOCTYPE svg PUBLIC "-//W3C//DTD SVG 1.1//EN" "http://www.w3.org/Graphics/SVG/1.1/DTD/svg11.dtd" >
<svg xmlns="http://www.w3.org/2000/svg">
<metadata>Generated by IcoMoon</metadata>
<defs>
<font id="iz" horiz-adv-x="1024">
<font-face units-per-em="1024" ascent="960" descent="-64" />
<missing-glyph horiz-adv-x="1024" />
<glyph unicode="&#x20;" horiz-adv-x="512" d="" />
<glyph unicode="&#xe900;" glyph-name="hand-shake" d="M189.542 766.198c-3.133-1.372-7.844-4.7-9.994-7.25-2.355-2.55-40.97-70.175-86.057-150.344-90.368-160.553-88.207-155.853-79.002-171.919 3.922-6.472 10.977-11.766 42.732-31.171 30.771-18.821 39.987-23.521 47.043-24.105 15.094-1.372 23.716 5.683 37.837 30.771 4.311 7.844 4.116 7.844 26.46-19.21l16.66-20.388-3.328-5.294c-7.25-11.172-9.8-19.016-9.8-31.56-0.195-22.938 13.527-44.104 34.888-54.108 5.489-2.55 11.766-4.7 14.111-4.7 3.533 0 4.311-1.567 5.294-9.605 1.761-15.483 8.622-28.621 20.193-39.209 11.766-10.783 24.115-15.882 38.226-15.882h9.411l4.7-10.383c6.072-13.332 16.855-24.115 30.188-30.188 8.428-3.922 12.933-4.7 24.31-4.311l14.111 0.389 3.922-7.639c5.294-10.783 16.466-21.76 27.832-27.832 8.038-4.311 12.544-5.294 24.504-5.294 20.582 0 29.798 5.683 46.459 28.232 0.389 0.389 9.605-1.966 20.582-5.294 35.287-10.783 48.026-13.138 72.141-13.138 20.582 0 23.521 0.389 34.109 5.489 14.111 6.472 25.682 15.677 34.693 27.443 6.472 8.622 6.861 8.817 20.388 9.994 26.655 2.355 43.52 15.882 50.964 40.97 3.328 10.977 5.294 13.138 13.138 13.138 11.172 0 26.655 7.639 35.676 17.838 8.038 8.817 14.899 23.327 14.899 31.171 0 2.55 2.55 3.727 11.172 4.7 13.916 1.567 27.054 7.455 35.482 15.483 15.094 14.305 21.565 39.004 15.288 57.436-1.761 5.1-3.133 9.411-3.133 9.605s5.878 4.905 13.332 10.383c7.25 5.489 18.821 15.677 25.876 22.743 6.861 7.055 13.332 12.943 13.916 12.943 0.788 0 4.506-5.683 8.428-12.544 9.411-16.66 16.466-21.76 30.577-21.76 10.394 0 12.349 0.983 49.009 23.521 31.56 19.599 38.81 24.893 42.732 31.365 9.216 16.077 11.366 11.366-78.991 171.909-45.087 80.169-83.702 147.804-86.057 150.344-5.1 5.683-14.705 9.994-22.743 9.994-7.649 0-11.172-1.761-52.531-27.249-38.42-23.521-42.342-27.638-42.342-44.298 0-7.444 1.567-12.544 6.277-20.777l6.277-11.172-8.622-2.161c-15.872-3.922-33.126-2.55-68.413 5.683-51.159 11.766-75.858 14.51-117.811 12.933-59.986-2.355-103.107-8.817-126.822-19.405-9.8-4.311-17.050-10.588-26.86-22.743l-3.727-4.7-29.798 4.905c-30.976 5.294-37.048 7.444-59.587 21.955l-11.366 7.25 4.7 8.233c2.744 4.506 5.489 10.977 6.072 14.51 1.956 8.622-1.761 20.972-8.233 27.249-2.939 2.744-21.955 15.288-42.148 27.443-39.404 23.726-44.104 25.487-57.242 19.61zM235.018 716.8c16.66-10.383 29.993-19.794 29.594-21.166-0.389-1.372-36.26-65.669-79.585-142.899l-79.186-140.36-15.288 9.605c-8.622 5.294-22.938 14.305-32.154 19.988-9.216 5.489-16.466 10.588-16.077 11.172 11.366 22.149 159.365 282.47 160.543 282.47 0.983 0 15.493-8.428 32.154-18.811zM901.693 595.651c43.325-77.036 78.991-140.933 79.196-142.111 0.389-1.178-13.722-10.977-31.171-21.565l-31.754-19.405-79.585 141.332c-43.715 77.824-79.585 142.121-79.78 142.899-0.584 1.567 59.003 38.615 62.331 38.81 1.178 0 37.437-62.925 80.763-139.96zM602.173 648.581c11.366-1.567 36.659-6.472 56.064-10.783 41.554-9.411 58.614-10.199 80.957-4.116 11.96 3.328 14.899 3.727 16.855 1.567 1.372-1.372 25.876-44.698 54.692-96.051l52.531-93.501-19.016-18.227c-10.394-9.994-23.91-21.565-29.798-25.682-9.605-6.472-11.366-7.055-14.111-4.506-24.699 21.555-110.356 84.285-155.054 113.295-42.732 27.843-130.939 76.063-139.172 76.063-6.277 0-47.237-12.933-51.159-16.077-1.567-1.372-6.666-7.444-10.977-13.332-24.893-32.932-57.436-52.931-86.252-52.931h-10.977l0.983 8.622c1.178 10.199 7.25 20.388 42.342 70.769 34.109 49.009 34.304 49.203 45.087 52.726 34.877 11.571 123.484 17.848 167.004 12.165zM293.038 628.193c15.483-9.605 30.188-14.899 50.381-17.838 8.038-1.372 16.66-2.744 19.016-3.328 3.922-0.788 2.939-2.939-13.916-27.832-10.199-14.705-21.371-32.543-24.893-39.404-6.072-11.561-6.666-14.111-6.666-29.798 0-19.599 2.55-24.893 15.882-32.737 6.861-4.116 9.605-4.311 27.249-3.727 13.722 0.594 23.521 1.956 32.348 5.1 24.893 8.622 50.77 27.638 70.769 52.142 11.172 13.527 12.739 14.705 26.266 19.21l14.305 4.905 33.126-17.644c74.486-39.793 134.861-79.391 211.118-138.588 35.482-27.638 49.398-40.581 51.159-47.831 4.7-19.016-12.739-36.065-32.737-31.754-3.133 0.778-39.404 21.565-80.568 46.264-79.196 47.442-83.313 49.203-91.546 40.97-4.905-4.905-5.294-16.466-0.389-20.972 1.761-1.956 34.499-21.955 72.335-44.698l68.997-41.165 0.195-8.622c0-9.8-5.294-19.999-12.349-23.132-2.55-1.178-9.411-2.744-15.288-3.533l-10.588-1.178-64.492 37.243c-43.715 25.487-66.253 37.437-70.175 37.437-7.25 0-15.288-7.844-15.288-14.705 0-3.133 2.15-7.444 5.489-10.588 2.939-2.744 31.171-20.193 62.925-38.42 31.56-18.227 58.020-34.304 58.419-35.676 1.761-4.506-5.489-20.193-10.783-23.716-3.727-2.355-9.021-3.328-19.016-3.133-13.527 0-14.305 0.389-66.253 25.876-29.010 14.305-55.081 25.876-58.020 25.876-11.172 0-18.821-16.271-11.766-24.699 1.567-1.761 24.31-13.916 50.77-26.655l48.026-23.521-9.411-8.428c-5.294-4.905-12.739-9.605-16.66-10.783-15.483-4.311-40.387-1.178-74.486 9.021l-16.077 4.905 4.506 6.277c6.666 8.817 9.216 17.644 9.216 31.56 0 25.293-17.838 48.62-42.537 56.064-6.861 2.15-7.639 2.939-6.861 7.844 1.372 9.216-3.533 27.054-9.994 36.659-8.038 11.96-20.193 21.166-33.516 25.283l-10.394 3.328-1.178 10.199c-2.939 27.832-25.876 49.398-54.497 51.548-11.766 0.788-14.705 0.195-24.31-4.506-7.444-3.533-13.332-8.428-18.227-14.899-3.922-5.1-7.649-9.411-8.233-9.411s-3.328 3.328-6.277 7.25c-6.072 8.622-17.644 17.244-28.426 21.166-16.271 5.683-39.209 1.567-50.77-9.216l-4.311-3.922-12.349 15.288c-6.861 8.428-16.271 19.405-20.972 24.504-5.683 6.072-8.233 10.383-7.444 12.349 0.983 2.939 95.468 171.325 103.496 184.852 3.727 5.878 4.311 6.277 8.233 3.727 2.15-1.577 9.994-6.482 17.439-10.793zM254.822 378.849c11.96-7.444 17.644-23.132 11.766-33.915-5.294-10.394-25.876-35.092-30.382-36.854-16.855-6.267-38.615 17.060-31.949 34.499 1.956 5.294 16.466 25.283 25.088 34.888 6.062 6.482 16.067 7.066 25.477 1.382zM354.785 376.893c8.622-5.294 14.111-14.899 14.111-24.699 0-6.072-1.372-9.605-6.666-15.677-3.533-4.116-19.405-25.283-35.092-46.848-15.677-21.565-29.993-40.776-31.56-42.537-4.116-4.7-16.271-4.506-24.115 0.389-8.428 5.1-15.094 18.227-13.722 26.655 1.178 6.666 60.764 90.368 72.141 101.345 6.871 6.472 15.698 6.861 24.904 1.372zM408.105 313.774c9.994-6.861 14.705-14.51 14.705-23.716 0-7.649-2.55-11.766-29.993-48.814-16.271-22.149-31.171-40.97-32.932-41.554-11.172-4.311-25.876 2.355-32.348 14.51-7.444 13.722-7.444 13.527 33.516 69.192 12.349 16.66 24.31 31.365 26.46 32.543 6.482 3.133 13.732 2.345 20.593-2.161zM464.169 238.889c7.844-7.639 8.622-9.411 8.622-18.033 0-9.011-1.178-11.172-18.627-34.693-10.199-13.722-20.777-25.876-23.327-27.054-16.077-7.455-38.42 13.722-33.72 31.949 0.983 4.311 28.426 42.732 37.048 52.142 2.939 3.133 6.277 4.311 12.739 4.311 7.66 0.010 9.82-0.973 17.265-8.622z" />
<glyph unicode="&#xe901;" glyph-name="like" d="M885.043 437.76c-8.704-18.534-19.456-27.955-32.256-28.365 5.939-6.861 10.957-16.384 15.053-28.57 3.994-12.288 6.042-23.45 6.042-33.485 0-27.75-10.65-51.712-31.949-71.782 7.27-12.902 10.957-26.726 10.957-41.677 0-14.848-3.584-29.594-10.65-44.237s-16.589-25.19-28.672-31.642c2.048-12.083 2.97-23.347 2.97-33.792 0-67.174-38.605-100.659-115.814-100.659h-72.909c-52.634 0-121.446 14.643-206.336 43.93-2.048 0.819-7.885 2.97-17.408 6.349-9.626 3.379-16.794 5.939-21.402 7.475-4.608 1.638-11.674 3.994-21.094 6.963s-17.101 5.222-22.938 6.656c-5.939 1.331-12.493 2.662-19.968 3.891s-13.722 1.843-19.046 1.843h-19.251v385.946h19.251c6.451 0 13.619 1.843 21.402 5.427 7.885 3.686 15.872 9.011 24.064 16.282 8.192 7.168 15.974 14.438 23.245 21.402 7.168 7.066 15.258 15.872 24.064 26.522s15.77 19.149 20.787 25.6c5.018 6.451 11.366 14.643 18.944 24.781 7.68 10.035 12.288 16.077 13.926 18.022 22.118 27.341 37.581 45.67 46.387 54.886 16.486 17.306 28.467 39.219 35.84 66.048 7.475 26.726 13.517 52.019 18.33 75.674 4.813 23.757 12.493 40.755 22.938 51.2 38.605 0 64.307-9.421 77.107-28.365 12.902-18.842 19.354-48.026 19.354-87.45 0-23.757-9.626-56.013-28.979-96.768-19.251-40.858-28.877-72.909-28.877-96.256h212.275c20.070 0 37.99-7.782 53.658-23.245s23.552-33.485 23.552-53.965c0.307-13.824-3.994-30.208-12.595-48.64zM191.795 112.128c-7.68-7.68-16.691-11.469-27.136-11.469s-19.558 3.789-27.136 11.469c-7.68 7.578-11.469 16.589-11.469 27.136s3.789 19.456 11.469 27.136c7.578 7.68 16.691 11.469 27.136 11.469s19.456-3.789 27.136-11.469c7.68-7.68 11.469-16.691 11.469-27.136s-3.789-19.558-11.469-27.136zM945.664 388.915c19.661 29.696 29.491 62.464 29.491 98.304 0 41.37-15.258 77.414-45.773 108.032-30.618 30.515-66.765 45.773-108.544 45.773h-106.189c19.354 39.834 28.979 78.438 28.979 115.814 0 47.002-7.066 84.378-21.094 112.23-14.029 27.75-34.509 48.128-61.542 61.235-26.931 12.902-57.344 19.456-91.136 19.456-20.48 0-38.605-7.475-54.272-22.221-17.306-16.896-29.696-38.605-37.376-65.126s-13.824-52.019-18.33-76.288c-4.608-24.371-11.776-41.472-21.402-51.61-19.661-21.299-41.165-47.002-64.512-77.107-40.653-52.736-68.198-83.866-82.637-93.491h-165.274c-21.299 0-39.526-7.475-54.579-22.63s-22.63-33.28-22.63-54.579v-385.946c0-21.299 7.475-39.526 22.63-54.579 15.053-15.155 33.28-22.63 54.579-22.63h173.67c8.806 0 36.557-7.987 83.251-24.064 49.459-17.306 92.979-30.515 130.56-39.526 37.683-9.114 75.674-13.619 114.278-13.619h77.824c56.73 0 102.298 16.179 136.806 48.64 34.611 32.256 51.712 76.493 51.302 132.301 24.064 31.027 36.147 66.765 36.147 107.315 0 8.806-0.614 17.51-1.843 26.010 15.258 26.931 22.938 55.91 22.938 86.835 0 14.336-1.741 28.16-5.325 41.472z" />
<glyph unicode="&#xe902;" glyph-name="check" d="M1013.76 682.394c0-17.306-6.042-31.949-18.125-44.032l-556.749-556.851c-12.083-12.083-26.726-18.125-44.032-18.125s-31.949 6.042-44.032 18.125l-322.458 322.458c-12.083 12.083-18.125 26.726-18.125 44.032s6.042 31.949 18.125 44.032l88.064 88.064c12.083 12.083 26.726 18.125 44.032 18.125s31.949-6.042 44.032-18.125l190.362-190.976 424.755 425.37c12.083 12.083 26.726 18.125 44.032 18.125s31.949-6.042 44.032-18.125l88.064-88.064c11.981-12.083 18.022-26.829 18.022-44.032v0z" />
<glyph unicode="&#xe903;" glyph-name="heart" d="M733.594 857.805c132.506 0 240.026-107.418 240.026-240.026 0-68.096-28.365-129.434-73.933-173.158l-387.686-389.632-394.65 396.595c-41.37 43.11-66.97 101.581-66.97 166.195 0 132.608 107.52 240.026 240.026 240.026 99.84 0 185.344-60.928 221.594-147.661 36.147 86.63 121.754 147.661 221.594 147.661zM733.594 897.946c-88.269 0-169.37-40.96-221.594-108.544-52.224 67.584-133.325 108.544-221.594 108.544-154.522 0-280.166-125.747-280.166-280.166 0-72.602 27.75-141.517 78.131-193.946l423.629-425.677 28.467 28.57 387.686 389.53c54.989 52.736 85.606 124.518 85.606 201.523 0 154.419-125.747 280.166-280.166 280.166v0z" />
<glyph unicode="&#xe904;" glyph-name="heart-full" d="M931.43 789.299c-97.587 89.6-255.693 89.6-353.28 0l-66.15-60.826-66.253 60.826c-97.587 89.6-255.693 89.6-353.178 0-109.773-100.762-109.773-263.987 0-364.749l419.43-385.024 419.43 384.922c109.773 100.864 109.773 264.090 0 364.851z" />
<glyph unicode="&#xe905;" glyph-name="star" d="M201.933-29.184l59.187 345.293-250.88 244.531 346.726 50.381 155.034 314.163 155.034-314.163 346.726-50.381-250.88-244.531 59.187-345.293-310.067 163.021-310.067-163.021zM512 174.080l262.861-138.24-50.176 292.659 212.685 207.258-293.888 42.701-131.482 266.342-131.482-266.24-293.888-42.701 212.685-207.258-50.176-292.659 262.861 138.138z" />
<glyph unicode="&#xe906;" glyph-name="star-full" d="M1013.76 560.64l-346.726 50.381-155.034 314.163-155.034-314.163-346.726-50.381 250.88-244.531-59.187-345.293 310.067 163.021 310.067-163.021-59.187 345.293 250.88 244.531z" />
<glyph unicode="&#xe907;" glyph-name="round-left" d="M462.817 947.487c-26.010-2.386-72.079-11.909-98.888-20.449-175.329-55.798-307.968-203.325-343.91-382.228-32.358-161.833 16.486-325.652 133.038-445.583 81.807-84.193 174.735-131.246 296.847-150.508 21.647-3.379 102.062-3.379 125.092 0.205 118.538 17.674 215.040 66.324 295.864 149.32 78.039 80.22 123.31 172.349 140.186 286.73 3.574 23.030 3.574 103.455 0.195 125.092-10.527 66.12-26.604 117.156-53.412 167.782-23.235 44.278-50.432 81.408-86.968 118.938-108.012 110.797-254.945 165.202-408.044 150.702zM583.741 909.169c196.178-30.781 348.078-175.923 386.202-369.132 10.127-50.432 11.715-114.964 4.168-164.014-28.785-185.457-162.611-333.978-343.306-380.252-36.342-9.329-62.147-12.902-102.461-14.295-165.407-5.56-314.132 70.492-405.668 207.493-36.137 54.211-61.358 120.136-72.274 189.235-4.966 31.775-4.966 106.824 0 138.598 16.087 102.656 59.965 189.829 131.451 261.315 78.234 78.234 173.742 122.716 289.905 134.82 17.869 1.792 92.129-0.594 111.985-3.768zM550.185 702.464c-8.735-3.768-234.895-229.14-240.456-239.473-1.987-4.168-3.768-11.121-3.768-15.483 0-4.372 1.782-11.315 3.768-15.483 5.755-11.121 231.721-235.899 240.855-239.667 4.168-1.587 10.322-2.98 13.896-2.98 7.741 0 21.043 5.755 25.815 11.121 8.54 9.533 11.715 26.409 7.342 37.929-0.993 2.98-47.657 51.425-103.649 107.418l-101.663 101.663 101.663 101.868c55.992 55.992 102.656 104.243 103.844 107.223 4.372 12.308 0 31.375-9.134 39.516-10.312 9.124-26.194 11.715-38.513 6.349z" />
<glyph unicode="&#xe908;" glyph-name="round-right" d="M462.817 947.487c-26.010-2.386-72.079-11.909-98.888-20.449-175.329-55.798-307.968-203.325-343.91-382.228-32.358-161.833 16.486-325.652 133.038-445.583 81.807-84.193 174.735-131.246 296.847-150.508 21.647-3.379 102.062-3.379 125.092 0.205 118.538 17.674 215.040 66.324 295.864 149.32 78.039 80.22 123.31 172.349 140.186 286.73 3.574 23.030 3.574 103.455 0.195 125.092-10.527 66.12-26.604 117.156-53.412 167.782-23.235 44.278-50.432 81.408-86.968 118.938-108.012 110.797-254.945 165.202-408.044 150.702zM583.741 909.169c196.178-30.781 348.078-175.923 386.202-369.132 10.127-50.432 11.715-114.964 4.168-164.014-28.785-185.457-162.611-333.978-343.306-380.252-36.342-9.329-62.147-12.902-102.461-14.295-165.407-5.56-314.132 70.492-405.668 207.493-36.137 54.211-61.358 120.136-72.274 189.235-4.966 31.775-4.966 106.824 0 138.598 16.087 102.656 59.965 189.829 131.451 261.315 78.234 78.234 173.742 122.716 289.905 134.82 17.869 1.792 92.129-0.594 111.985-3.768zM406.231 701.87c-9.533-4.372-13.701-8.735-17.869-18.668-3.574-8.335-3.768-18.668-0.799-26.604 0.993-2.98 47.657-51.425 103.649-107.418l101.663-101.663-101.663-101.878c-55.992-55.992-102.656-104.243-103.844-107.223-4.168-11.52-0.993-28.396 7.547-37.929 4.762-5.366 18.074-11.121 25.815-11.121 3.574 0 9.728 1.393 13.896 2.98 9.134 3.779 235.1 228.547 240.855 239.677 4.567 8.929 4.762 19.057 0.799 28.989-4.372 10.127-229.14 235.5-240.261 240.855-10.127 4.762-19.661 4.762-29.788 0z" />
<glyph unicode="&#xe909;" glyph-name="prev" d="M489.441 698.88l-250.88-250.88 501.76-501.76 22.446 22.446c12.544 12.544 22.671 23.552 22.671 24.863 0 1.106-101.673 103.875-226.007 228.219l-226.243 226.232 226.232 226.232c124.344 124.334 226.007 227.113 226.007 228.209 0 1.321-10.117 12.329-22.671 24.863l-22.436 22.456-250.88-250.88z" />
<glyph unicode="&#xe90a;" glyph-name="next" d="M261.007 927.089c-12.329-12.329-22.446-23.552-22.446-24.648 0-1.321 101.673-103.875 226.007-228.209l226.243-226.232-226.232-226.232c-124.344-124.334-226.017-227.113-226.017-228.209 0-1.321 10.127-12.319 22.671-24.863l22.446-22.446 501.76 501.76-501.76 501.76-22.671-22.682z" />
<glyph unicode="&#xe90b;" glyph-name="up" d="M260.465 470.446l-250.225-250.214 22.671-22.671c12.329-12.329 23.552-22.446 24.648-22.446 1.321 0 103.875 101.673 228.209 226.017l226.232 226.222 226.232-226.232c124.334-124.334 227.113-226.007 228.209-226.007 1.321 0 12.319 10.117 24.863 22.671l22.446 22.446-250.429 250.44c-137.544 137.544-250.665 250.214-251.32 250.214s-113.777-112.671-251.535-250.44z" />
<glyph unicode="&#xe90c;" glyph-name="down" d="M32.686 698.767l-22.446-22.446 501.76-501.76 501.76 501.76-22.446 22.446c-12.544 12.544-23.552 22.671-24.863 22.671-1.096 0-103.875-101.673-228.209-226.017l-226.243-226.232-226.232 226.232c-124.334 124.344-227.113 226.017-228.209 226.017-1.321 0-12.329-10.127-24.873-22.671z" />
<glyph unicode="&#xe90d;" glyph-name="arrow-back" d="M355.615 790.733c-4.291-2.857-83.773-81.193-176.691-174.111l-168.684-168.97 172.974-172.974c166.113-166.113 173.548-172.974 183.552-172.974 5.714 0 13.722 1.434 17.439 3.144 12.012 5.427 17.152 24.3 10.291 37.734-1.72 3.43-63.754 67.185-138.086 141.527l-134.656 134.943h873.431l9.155 8.294c7.721 6.861 9.431 10.291 9.431 20.296s-1.71 13.435-9.431 20.296l-9.155 8.294h-873.441l134.656 135.229c74.342 74.066 136.376 137.82 138.097 141.251 4.004 8.008 4.004 18.586 0 27.443-6.011 12.872-26.307 18.299-38.881 10.578z" />
<glyph unicode="&#xe90e;" glyph-name="arrow-next" d="M639.181 790.63c-11.141-5.427-16.005-24.566-9.431-37.427 1.71-3.43 63.713-67.144 138.004-141.148l134.574-135.148h-872.878l-9.144-8.284c-13.425-11.715-13.425-28.856 0-40.571l9.144-8.284h872.878l-134.574-134.861c-74.291-74.291-136.294-138.004-138.004-141.435-6.574-12.861-1.997-32 9.431-37.714 8.284-4.28 22.006-4.854 28.856-0.86 3.144 1.72 82.289 79.718 175.718 173.148l170.004 170.291-172.861 172.861c-171.715 171.725-173.148 172.861-184.289 172.575-6.287 0-14.285-1.423-17.428-3.144z" />
<glyph unicode="&#xe90f;" glyph-name="arrow-down" d="M501.924 948.163c-3.43-1.434-8.858-6.287-12.288-10.578l-6.001-7.711v-872.182l-134.892 134.595c-74.301 74.301-138.025 136.315-141.455 138.035-12.861 6.574-32.010 2.007-37.724-9.431-4.291-8.284-4.864-22.006-0.86-28.867 1.71-3.144 79.729-82.299 173.179-175.749l170.322-170.035 172.892 172.892c166.031 166.031 172.892 173.466 172.892 183.47 0 5.714-1.434 13.722-3.144 17.428-5.427 12.001-24.289 17.142-37.724 10.281-3.43-1.71-67.154-63.724-141.169-138.025l-135.168-134.595v873.042l-7.721 8.571c-8.571 9.144-21.432 12.861-31.14 8.858z" />
<glyph unicode="&#xe910;" glyph-name="arrow-up" d="M337.654 777.114c-165.489-165.489-172.36-172.933-172.36-182.948 0-5.724 1.434-13.742 3.154-17.459 5.437-12.022 24.34-17.183 37.796-10.312 3.441 1.72 67.287 63.846 141.722 138.291l135.137 134.851v-874.691l8.305-9.165c6.871-7.731 10.312-9.452 20.326-9.452 10.025 0 13.455 1.72 20.326 9.452l8.305 9.165v874.68l135.424-134.851c74.158-74.445 138.004-136.571 141.435-138.291 12.882-6.584 32.061-2.007 37.509 9.452 3.154 5.724 4.588 15.176 3.717 24.627-0.276 3.717-343.276 349.297-346.716 349.297-0.86 0-79.022-77.588-174.080-172.646z" />
<glyph unicode="&#xe911;" glyph-name="cart" d="M349.184 36.557c0 24.576 12.288 46.080 31.027 57.856h65.229c18.637-11.878 31.027-33.28 31.027-57.856 0-37.376-28.774-67.584-63.898-67.584-35.123 0.102-63.386 30.208-63.386 67.584zM716.8 36.557c0 24.576 12.288 46.080 31.027 57.856h65.229c18.227-11.878 31.027-33.28 31.027-57.856 0-37.376-28.774-67.584-63.898-67.584-35.021 0.102-63.386 30.208-63.386 67.584zM238.797 926.925l64.819-202.138 710.144-0.922-117.658-369.357-489.882-59.29 9.933-75.264 454.349-0.922c0-31.949-13.722-55.194-36.147-72.090h-470.63c-22.323 16.896-40.141 46.49-40.141 78.541l-153.19 625.254-125.952 0.512c-21.914 0-34.202 15.462-34.202 38.81 0 22.835 18.739 36.966 40.55 36.966h188.006z" />
<glyph unicode="&#xe912;" glyph-name="circle-back" d="M472.904 949.299c-123.382-11.305-229.816-60.754-315.761-146.698-78.408-78.408-124.324-169.062-142.459-281.62-5.888-35.789-5.888-107.612-0.236-144.814 17.193-110.899 64.287-204.155 142.694-282.798 41.677-41.441 79.585-68.762 131.389-94.894 159.171-79.585 351.089-67.82 500.132 30.853 211.22 140.104 285.389 416.307 172.605 641.884-26.143 51.804-53.453 89.713-94.894 131.389-77.937 77.701-172.595 125.737-280.443 142.223-24.248 3.533-92.068 6.359-113.029 4.475zM620.78 674.273c16.486-16.722 19.313-20.726 19.313-27.546 0-7.301-7.537-15.544-95.365-103.373l-95.365-95.365 95.365-95.365c87.593-87.593 95.365-96.072 95.365-103.373 0-6.595-2.826-10.834-19.077-27.31-20.019-20.49-25.661-23.552-36.731-18.606-8.714 3.768-235.233 230.994-238.295 238.766-1.413 4.239-1.178 8.243 0.942 12.954 3.062 7.301 232.643 237.353 239.002 239.708 8.008 3.052 16.241-1.894 34.847-20.49z" />
<glyph unicode="&#xe913;" glyph-name="circle-next" d="M472.842 949.34c-123.372-11.305-229.786-60.744-315.72-146.678-78.397-78.397-124.314-169.042-142.438-281.58-5.888-35.789-5.888-107.592-0.236-144.794 17.193-110.889 64.276-204.124 142.674-282.757 120.31-120.074 287.703-170.691 453.919-137.503 92.058 18.596 178.227 63.57 246.968 129.26 43.796 41.431 75.1 84.285 103.127 140.554 70.154 140.79 70.154 305.357 0 445.44-26.132 51.794-53.443 89.702-94.884 131.379-77.926 77.691-172.575 125.727-280.402 142.203-24.248 3.533-92.058 6.359-113.009 4.475zM559.483 575.703c116.306-116.306 118.19-118.426 118.19-127.611s-2.12-11.305-115.835-125.491c-63.805-64.041-119.132-117.719-122.665-119.132-11.069-4.946-16.712-1.884-36.731 18.596-16.251 16.476-19.067 20.716-19.067 27.31 0 7.301 7.301 15.299 94.177 102.175 51.794 51.794 94.177 95.119 94.177 96.532 0 1.178-42.383 44.728-94.177 96.532-111.596 111.831-105.001 100.065-74.629 129.966 20.951 20.716 23.542 22.129 32.256 20.48 3.758-0.696 47.319-42.609 124.303-119.357z" />
</font>
</defs>
</svg>
