<svg 
 xmlns="http://www.w3.org/2000/svg"
 xmlns:xlink="http://www.w3.org/1999/xlink"
 width="151px" height="142px">
<path fill-rule="evenodd" fill="rgb(66, 193, 199)"
 d="M81.395,139.362 L129.368,84.277 C141.123,70.263 147.002,56.490 147.002,42.962 C147.002,29.500 143.741,18.970 137.222,11.381 C130.702,3.794 121.693,-0.004 110.194,-0.004 C107.011,-0.004 103.764,0.657 100.454,1.972 C97.142,3.290 94.062,5.063 91.213,7.294 C88.364,9.532 85.912,11.625 83.860,13.585 C81.806,15.544 79.856,17.625 78.007,19.828 C76.159,17.625 74.208,15.544 72.155,13.585 C70.101,11.625 67.651,9.532 64.801,7.294 C61.952,5.063 58.872,3.290 55.561,1.972 C52.250,0.657 49.002,-0.004 45.820,-0.004 C34.320,-0.004 25.311,3.794 18.792,11.381 C12.272,18.970 9.013,29.500 9.013,42.962 C9.013,47.065 9.616,51.289 10.822,55.632 C12.028,59.980 13.402,63.682 14.942,66.741 C16.482,69.803 18.227,72.788 20.178,75.693 C22.129,78.601 23.553,80.605 24.452,81.706 C25.350,82.806 26.056,83.606 26.569,84.093 L74.619,139.362 C75.543,140.463 76.672,141.015 78.007,141.015 C79.341,141.015 80.471,140.463 81.395,139.362 L81.395,139.362 Z"/>
<path fill-rule="evenodd"  fill="rgb(66, 193, 199)"
 d="M138.495,13.350 C130.657,4.949 120.282,0.362 109.210,0.362 C98.137,0.362 87.729,4.990 79.893,13.383 L75.799,17.765 L71.642,13.310 C63.807,4.921 53.367,0.264 42.294,0.264 C31.252,0.264 20.846,4.881 13.041,13.246 C5.204,21.646 0.889,32.794 0.920,44.666 C0.920,56.524 5.266,67.643 13.104,76.037 L72.690,139.887 C73.514,140.771 74.625,141.246 75.703,141.246 C76.782,141.246 77.894,140.804 78.718,139.921 L138.431,76.176 C146.269,67.777 150.583,56.627 150.583,44.760 C150.615,32.901 146.332,21.749 138.495,13.350 ZM132.403,69.685 L75.703,130.201 L19.133,69.581 C12.913,62.918 9.486,54.078 9.486,44.666 C9.486,35.238 12.881,26.406 19.101,19.779 C25.288,13.150 33.537,9.471 42.294,9.471 C51.083,9.471 59.364,13.150 65.582,19.806 L72.754,27.495 C74.434,29.293 77.132,29.293 78.814,27.495 L85.921,19.881 C92.140,13.212 100.421,9.536 109.177,9.536 C117.935,9.536 126.183,13.212 132.403,19.847 C138.621,26.503 142.016,35.344 142.016,44.760 C142.049,54.182 138.621,63.020 132.403,69.685 Z"/>
</svg>