<svg 
 xmlns="http://www.w3.org/2000/svg"
 xmlns:xlink="http://www.w3.org/1999/xlink"
 width="151px" height="142px">
<path fill-rule="evenodd"  opacity="0.502" fill="rgb(183, 183, 183)"
 d="M81.395,139.478 L129.368,88.300 C141.123,75.280 147.002,62.484 147.002,49.915 C147.002,37.408 143.741,27.625 137.222,20.574 C130.702,13.525 121.693,9.996 110.194,9.996 C107.011,9.996 103.764,10.610 100.454,11.832 C97.142,13.057 94.062,14.704 91.213,16.777 C88.364,18.856 85.912,20.801 83.860,22.622 C81.806,24.441 79.856,26.375 78.007,28.421 C76.159,26.375 74.208,24.441 72.155,22.622 C70.101,20.801 67.651,18.856 64.801,16.777 C61.952,14.704 58.872,13.057 55.561,11.832 C52.250,10.610 49.002,9.996 45.820,9.996 C34.320,9.996 25.311,13.525 18.792,20.574 C12.272,27.625 9.013,37.408 9.013,49.915 C9.013,53.727 9.616,57.651 10.822,61.686 C12.028,65.726 13.402,69.166 14.942,72.007 C16.482,74.852 18.227,77.626 20.178,80.325 C22.129,83.026 23.553,84.888 24.452,85.911 C25.350,86.933 26.056,87.676 26.569,88.129 L74.619,139.478 C75.543,140.501 76.672,141.014 78.007,141.014 C79.341,141.014 80.471,140.501 81.395,139.478 L81.395,139.478 Z"/>
<path fill-rule="evenodd"  fill="rgb(255, 255, 255)"
 d="M138.495,13.350 C130.657,4.949 120.282,0.362 109.210,0.362 C98.137,0.362 87.729,4.990 79.893,13.383 L75.799,17.765 L71.642,13.310 C63.807,4.921 53.367,0.264 42.294,0.264 C31.252,0.264 20.846,4.881 13.041,13.246 C5.204,21.646 0.889,32.794 0.920,44.666 C0.920,56.524 5.266,67.643 13.104,76.037 L72.690,139.887 C73.514,140.771 74.625,141.246 75.703,141.246 C76.782,141.246 77.894,140.804 78.718,139.921 L138.431,76.176 C146.269,67.777 150.583,56.627 150.583,44.760 C150.615,32.901 146.332,21.749 138.495,13.350 ZM132.403,69.685 L75.703,130.201 L19.133,69.581 C12.913,62.918 9.486,54.078 9.486,44.666 C9.486,35.238 12.881,26.406 19.101,19.779 C25.288,13.150 33.537,9.471 42.294,9.471 C51.083,9.471 59.364,13.150 65.582,19.806 L72.754,27.495 C74.434,29.293 77.132,29.293 78.814,27.495 L85.921,19.881 C92.140,13.212 100.421,9.536 109.177,9.536 C117.935,9.536 126.183,13.212 132.403,19.847 C138.621,26.503 142.016,35.344 142.016,44.760 C142.049,54.182 138.621,63.020 132.403,69.685 Z"/>
</svg>